# xmcd
# 
# Track frame offsets:
#     150
#     17750
#     37955
#     55835
#     71925
#     103335
#     119440
#     138045
#     165775
#     184810
#     201285
#     222145
#     244055
#     262830
#     279980
# 
# Disc length: 4102
# 
# Revision: 4
# Processed by: cddbd v1.5.2PL0 Copyright (c) Steve Scherf et al.
# Submitted via: BonkEnc v1.0.8
# 
DISCID=d210040f
DTITLE=Alphaville - First Harvest 1984-92
DYEAR=0
DGENRE=
TTITLE0=Big In Japan
TTITLE1=Sounds Like A Melody
TTITLE2=Sensations
TTITLE3=The Mysteries of Love
TTITLE4=Lassie Come Home
TTITLE5=Jerusalem
TTITLE6=Dance with Me
TTITLE7=For A Million
TTITLE8=A Victory of Love
TTITLE9=The Jet Set
TTITLE10=Red Rose
TTITLE11=Romeos
TTITLE12=Summer Rain
TTITLE13=Forever Young
TTITLE14=Big In Japan [Culture Mix]
EXTD=
EXTT0=
EXTT1=
EXTT2=
EXTT3=
EXTT4=
EXTT5=
EXTT6=
EXTT7=
EXTT8=
EXTT9=
EXTT10=
EXTT11=
EXTT12=
EXTT13=
EXTT14=
PLAYORDER=
